<svg xmlns="http://www.w3.org/2000/svg" width="211" height="40" viewBox="0 0 211 40" fill="none"><path d="M22.7139 6.11357V2.19857C22.7139 2.08982 22.6247 1.99982 22.5169 1.99982H1.0812C0.965971 1.99982 0.873047 2.09357 0.873047 2.20982V31.7898C0.873047 31.9061 0.965971 31.9998 1.0812 31.9998H6.07678C6.19201 31.9998 6.28493 31.9061 6.28493 31.7898L6.29236 16.9248C6.29236 16.3098 6.62689 15.7473 7.16585 15.4586L21.8441 7.57982C22.383 7.29107 22.7176 6.72857 22.7176 6.11357H22.7139Z" fill="#191919"></path><path d="M8.76788 27.8861V31.8011C8.76788 31.9098 8.85708 31.9998 8.96488 31.9998H30.4005C30.5158 31.9998 30.6087 31.9061 30.6087 31.7898V2.20982C30.6087 2.09357 30.5158 1.99982 30.4005 1.99982H25.405C25.2897 1.99982 25.1968 2.09357 25.1968 2.20982L25.1894 17.0748C25.1894 17.6898 24.8548 18.2523 24.3159 18.5411L9.63764 26.4198C9.09869 26.7086 8.76416 27.2711 8.76416 27.8861H8.76788Z" fill="#191919"></path><path d="M54.803 1.99976H41.5929C41.4777 1.99976 41.3848 2.09351 41.3848 2.20976V31.7898C41.3848 31.906 41.4777 31.9998 41.5929 31.9998H46.5885C46.7037 31.9998 46.7966 31.906 46.7966 31.7898V21.0873C46.7966 20.8548 46.9825 20.671 47.2092 20.671H54.803C60.9471 20.671 65.2364 16.876 65.2364 11.4423C65.2364 5.24726 59.9881 2.00351 54.803 2.00351V1.99976ZM46.7929 7.20476C46.7929 7.08851 46.8859 6.99476 47.0011 6.99476H53.725C57.1967 6.99476 59.6201 8.821 59.6201 11.4385C59.6201 14.056 57.3045 15.6723 53.725 15.6723H47.0011C46.8859 15.6723 46.7929 15.5785 46.7929 15.4623V7.20476Z" fill="#191919"></path><path d="M83.7133 10.3135C83.7133 10.501 83.4865 10.5947 83.3601 10.4597C81.5723 8.5622 79.1972 7.6022 76.2831 7.6022C73.369 7.6022 70.6147 8.7572 68.6633 10.8535C66.5521 13.1222 65.437 16.3322 65.437 20.1347C65.437 28.7935 70.8861 32.6672 76.2868 32.6672C79.2641 32.6672 81.892 31.3885 83.8062 29.0447C83.9288 28.8947 84.1704 28.9847 84.1704 29.1797V31.7897C84.1704 31.906 84.2634 31.9997 84.3786 31.9997H88.7943C88.9096 31.9997 89.0025 31.906 89.0025 31.7897V8.4797C89.0025 8.36345 88.9096 8.2697 88.7943 8.2697H83.9251C83.8099 8.2697 83.717 8.36345 83.717 8.4797V10.3097L83.7133 10.3135ZM83.8805 20.1797C83.8805 23.9222 81.6243 27.9235 77.4428 27.9685C75.7218 27.9835 74.1904 27.3947 73.053 26.2547C71.6555 24.8597 70.8898 22.6885 70.8898 20.1385C70.8898 17.5885 71.6703 15.4472 73.0865 14.0335C74.2164 12.9047 75.6958 12.3085 77.3721 12.3085C77.3944 12.3085 77.4205 12.3085 77.4428 12.3085C81.234 12.346 83.8805 15.5822 83.8805 20.1797Z" fill="#191919"></path><path d="M132.139 9.64229C132.139 9.92729 132.139 10.1935 132.139 10.456C132.139 10.6473 131.908 10.741 131.782 10.6023C130.054 8.65604 127.597 7.60604 124.709 7.60604C121.821 7.60604 119.04 8.73854 117.089 10.7973C114.978 13.0285 113.859 16.186 113.859 19.9285C113.859 23.671 114.974 27.0723 117.085 29.3748C119.033 31.501 121.739 32.671 124.709 32.671C127.496 32.671 129.998 31.576 131.786 29.6185C131.912 29.4798 132.143 29.5773 132.143 29.7648C132.143 30.0048 132.143 30.2485 132.143 30.5073V31.7935C132.143 31.9098 132.236 32.0035 132.351 32.0035H137.22C137.335 32.0035 137.428 31.9098 137.428 31.7935V0.934793C137.428 0.818543 137.335 0.724792 137.22 0.724792H132.351C132.236 0.724792 132.143 0.818543 132.143 0.934793V9.64229H132.139ZM132.139 19.8873C132.139 24.6835 129.619 27.931 125.868 27.9685C125.846 27.9685 125.82 27.9685 125.798 27.9685C124.133 27.9685 122.661 27.3798 121.546 26.266C120.107 24.8298 119.315 22.5798 119.315 19.9323C119.315 17.4835 120.062 15.391 121.423 14.0335C122.549 12.9085 124.062 12.3123 125.794 12.3123C125.82 12.3123 125.846 12.3123 125.872 12.3123C129.622 12.3498 132.143 15.3948 132.143 19.891L132.139 19.8873Z" fill="#191919"></path><path d="M151.296 7.62482C144.237 7.62482 139.495 12.6611 139.495 20.1573C139.495 27.6536 144.237 32.6898 151.296 32.6898C158.354 32.6898 163.097 27.6536 163.097 20.1573C163.097 12.6611 158.354 7.62482 151.296 7.62482ZM157.648 20.1573C157.648 25.0173 155.273 27.9423 151.292 27.9873C149.594 28.0061 148.129 27.4398 147.036 26.3523C145.668 24.9873 144.944 22.8461 144.944 20.1611C144.944 17.4761 145.665 15.3198 147.025 13.9623C148.096 12.8936 149.542 12.3311 151.207 12.3311C151.236 12.3311 151.262 12.3311 151.292 12.3311C155.273 12.3761 157.648 15.3011 157.648 20.1611V20.1573Z" fill="#191919"></path><path d="M201.046 18.631L209.706 8.61854C209.821 8.48354 209.728 8.27354 209.55 8.27354H203.168C203.105 8.27354 203.045 8.30354 203.008 8.35229L195.351 17.821C195.229 17.9748 194.983 17.8848 194.983 17.6898V0.934793C194.983 0.818543 194.89 0.724792 194.775 0.724792H189.906C189.791 0.724792 189.698 0.818543 189.698 0.934793V31.7898C189.698 31.906 189.791 31.9998 189.906 31.9998H194.775C194.89 31.9998 194.983 31.906 194.983 31.7898V25.786C194.983 25.6848 195.02 25.5873 195.084 25.5123L197.199 23.056C197.288 22.9548 197.444 22.9623 197.522 23.071L203.863 31.9135C203.9 31.966 203.963 31.9998 204.03 31.9998H209.925C210.093 31.9998 210.193 31.8048 210.093 31.6698L201.027 19.021C200.942 18.901 200.949 18.7398 201.046 18.631Z" fill="#191919"></path><path d="M176.556 27.9873C172.817 27.9873 170.204 24.7511 170.204 20.1161C170.204 15.4811 172.698 12.3273 176.556 12.3273C180.035 12.3273 181.819 14.7461 182.094 17.2173C182.106 17.3223 182.191 17.4048 182.299 17.4048H187.335C187.458 17.4048 187.558 17.2923 187.544 17.1686C186.882 11.3598 182.596 7.62482 176.556 7.62482C169.386 7.62482 164.755 12.5298 164.755 20.1161C164.755 27.7023 169.498 32.6898 176.556 32.6898C183.198 32.6898 186.83 28.1748 187.532 23.6223C187.551 23.4948 187.451 23.3823 187.324 23.3823H182.273C182.176 23.3823 182.094 23.4498 182.072 23.5473C181.682 25.4261 179.968 27.9836 176.556 27.9836V27.9873Z" fill="#191919"></path><path d="M114.9 8.29602H109.815C109.729 8.29602 109.655 8.34852 109.625 8.42727L102.686 25.9735C102.671 26.0185 102.63 26.0223 102.615 26.0223C102.6 26.0223 102.563 26.0185 102.544 25.9735L96.404 8.43102C96.3743 8.34852 96.2963 8.29227 96.2108 8.29227H90.6242C90.4792 8.29227 90.3789 8.43852 90.4309 8.57352L99.753 32.626V32.7835L97.0285 39.256C96.9727 39.391 97.0694 39.5448 97.2181 39.5448H102.392C102.489 39.5448 102.574 39.4885 102.611 39.3985L115.089 8.58102C115.145 8.44602 115.045 8.29602 114.9 8.29602Z" fill="#191919"></path></svg>