<?xml version="1.0" encoding="utf-8"?>
<!-- Generator: Adobe Illustrator 21.0.0, SVG Export Plug-In . SVG Version: 6.00 Build 0)  -->
<svg version="1.1" xmlns="http://www.w3.org/2000/svg" xmlns:xlink="http://www.w3.org/1999/xlink" x="0px" y="0px"
     width="1000" viewBox="0 0 862 224" style="enable-background:new 0 0 862 224;" xml:space="preserve">
<style type="text/css">
	.st0{display:none;}
	.st1{fill:#585852;}
	.st2{fill:#8DC63F;}
</style>
<g id="Layer_1" class="st0">
</g>
<g id="Layer_2">
	<g>
		<path class="st1" d="M353.5,149.8c-4.7,4-10,7.1-15.9,9.3c-5.9,2.2-12.4,3.3-19.5,3.3c-8.4,0-15.9-1.5-22.7-4.6
			c-6.7-3.1-12.5-7.2-17.3-12.4c-4.8-5.2-8.5-11.2-11.1-18c-2.6-6.8-3.9-14-3.9-21.5v-0.3c0-7.5,1.3-14.7,4-21.6
			c2.7-6.9,6.4-12.9,11.2-18.1c4.8-5.2,10.6-9.4,17.4-12.5c6.8-3.1,14.4-4.6,22.8-4.6c8.3,0,15.8,1.5,22.6,4.6
			c6.8,3.1,12.6,7.2,17.4,12.4c4.8,5.2,8.5,11.2,11.1,18c2.6,6.8,3.9,14,3.9,21.5c0.1,0.1,0.1,0.2,0,0.3c0,7.3-1.2,14.3-3.7,20.9
			c-2.5,6.6-6,12.6-10.7,17.8l15.7,13.2l-5.8,6.3L353.5,149.8z M318.3,155c5.8,0,11.1-0.9,16-2.7c4.9-1.8,9.3-4.4,13.2-7.6
			l-21.3-18.2l5.8-6.4l21,19.1c3.8-4.4,6.7-9.4,8.8-15.1c2.1-5.7,3.1-11.7,3.1-18.1v-0.3c0-6.8-1.2-13.2-3.5-19.2
			c-2.4-6-5.6-11.2-9.7-15.7c-4.1-4.4-9.1-8-14.8-10.6c-5.8-2.6-12-3.9-18.8-3.9c-6.8,0-13.1,1.3-18.8,3.8
			c-5.7,2.6-10.6,6.1-14.7,10.5c-4.1,4.4-7.4,9.7-9.7,15.6c-2.3,6-3.5,12.3-3.5,19.1v0.3c0,6.8,1.2,13.2,3.5,19.2
			c2.4,6,5.6,11.3,9.7,15.7c4.1,4.4,9.1,8,14.8,10.6C305.2,153.7,311.5,155,318.3,155z"/>
		<path class="st1" d="M422.1,162.3c-5,0-9.5-0.8-13.5-2.4c-4-1.6-7.3-3.9-10.1-6.8c-2.8-2.9-4.9-6.4-6.3-10.4
			c-1.4-4-2.1-8.4-2.1-13.3v-49h7.7V128c0,8.3,2.2,14.9,6.6,19.8c4.4,5,10.7,7.5,18.8,7.5c3.9,0,7.5-0.7,10.9-2.1
			c3.4-1.4,6.4-3.4,8.9-5.9c2.5-2.5,4.5-5.5,5.9-9c1.4-3.5,2.1-7.4,2.1-11.5V80.4h7.7v80h-7.7v-14.9c-2.7,4.7-6.4,8.7-11,11.9
			C435.3,160.7,429.4,162.3,422.1,162.3z"/>
		<path class="st1" d="M508.2,162.3c-3.8,0-7.5-0.5-11.1-1.6c-3.7-1-7-2.6-9.9-4.7c-2.9-2.1-5.3-4.7-7.1-7.8
			c-1.8-3.1-2.7-6.8-2.7-11v-0.3c0-4.2,0.9-7.9,2.6-11.1c1.7-3.2,4.1-6,7.1-8.2c3-2.2,6.7-3.9,11-5c4.3-1.1,9-1.7,14.3-1.7
			c5.6,0,10.5,0.3,14.6,0.9c4.1,0.6,8.1,1.5,11.9,2.5v-3.4c0-8.1-2.3-14.2-7-18.3c-4.7-4.1-11.1-6.1-19.4-6.1
			c-4.9,0-9.4,0.6-13.5,1.8c-4.1,1.2-8,2.7-11.6,4.6l-2.8-6.8c4.4-2.1,8.8-3.8,13.3-5.1c4.5-1.3,9.5-1.9,15.1-1.9
			c11,0,19.4,2.9,25.3,8.8c5.4,5.4,8.2,13,8.2,22.6v49.9h-7.5v-13.3c-1.4,1.9-3,3.7-4.9,5.6c-1.9,1.8-4.2,3.5-6.7,4.9
			c-2.5,1.4-5.4,2.6-8.6,3.5C515.4,161.9,512,162.3,508.2,162.3z M508.7,155c4.1,0,8-0.6,11.6-1.8c3.7-1.2,6.9-2.9,9.6-5
			s5-4.7,6.6-7.7c1.6-3,2.4-6.4,2.4-10v-9.1c-3.3-0.8-7.3-1.6-11.8-2.4c-4.5-0.8-9.6-1.2-15.4-1.2c-8.5,0-15,1.7-19.5,5.1
			c-4.6,3.4-6.8,7.9-6.8,13.5v0.3c0,2.9,0.6,5.5,1.9,7.7c1.3,2.2,3,4.1,5.1,5.7c2.1,1.6,4.6,2.8,7.5,3.6
			C502.7,154.5,505.6,155,508.7,155z"/>
		<path class="st1" d="M571.1,45.9h7.7v114.6h-7.7V45.9z"/>
		<path class="st1" d="M605.2,80.4h7.7v17.9c1.7-2.6,3.6-5.1,5.8-7.5c2.2-2.4,4.6-4.5,7.3-6.3c2.7-1.8,5.6-3.2,8.9-4.3
			s6.9-1.6,10.9-1.6c4.8,0,9.5,0.9,14.2,2.8c4.7,1.9,8.8,4.6,12.5,8.2c3.7,3.6,6.6,7.9,8.9,13.1c2.2,5.2,3.4,11,3.4,17.5v0.3
			c0,6.5-1.1,12.3-3.4,17.5c-2.3,5.2-5.2,9.6-8.9,13.2c-3.7,3.6-7.8,6.4-12.5,8.3c-4.7,1.9-9.4,2.9-14.2,2.9c-4,0-7.6-0.5-11-1.6
			c-3.3-1-6.4-2.5-9-4.2c-2.7-1.8-5.1-3.8-7.2-6.1c-2.1-2.3-4.1-4.7-5.7-7.2v42.4h-7.7V80.4z M645.1,155c4.4,0,8.5-0.8,12.3-2.4
			c3.8-1.6,7.2-3.8,10-6.7s5.1-6.5,6.7-10.8c1.6-4.2,2.4-9,2.4-14.4v-0.3c0-5.2-0.8-10-2.5-14.3c-1.7-4.3-4-7.9-6.8-10.9
			c-2.9-3-6.2-5.3-10.1-6.9c-3.8-1.6-7.8-2.4-12-2.4c-4.2,0-8.3,0.8-12.2,2.5c-3.9,1.7-7.4,4-10.5,7.1c-3,3-5.5,6.6-7.3,10.8
			c-1.8,4.2-2.7,8.8-2.7,14v0.3c0,5.1,0.9,9.8,2.7,14c1.8,4.2,4.3,7.8,7.3,10.8c3,3,6.5,5.3,10.5,7C636.8,154.1,640.9,155,645.1,155
			z"/>
		<path class="st1" d="M729.1,162.3c-3.8,0-7.5-0.5-11.1-1.6c-3.7-1-7-2.6-9.9-4.7c-2.9-2.1-5.3-4.7-7.1-7.8
			c-1.8-3.1-2.7-6.8-2.7-11v-0.3c0-4.2,0.9-7.9,2.6-11.1c1.7-3.2,4.1-6,7.1-8.2c3-2.2,6.7-3.9,11-5c4.3-1.1,9-1.7,14.3-1.7
			c5.6,0,10.5,0.3,14.6,0.9c4.1,0.6,8.1,1.5,11.9,2.5v-3.4c0-8.1-2.3-14.2-7-18.3c-4.7-4.1-11.1-6.1-19.4-6.1
			c-4.9,0-9.4,0.6-13.5,1.8c-4.1,1.2-8,2.7-11.6,4.6l-2.8-6.8c4.4-2.1,8.8-3.8,13.3-5.1c4.5-1.3,9.5-1.9,15.1-1.9
			c11,0,19.4,2.9,25.3,8.8c5.4,5.4,8.2,13,8.2,22.6v49.9h-7.5v-13.3c-1.4,1.9-3,3.7-4.9,5.6c-1.9,1.8-4.2,3.5-6.7,4.9
			c-2.5,1.4-5.4,2.6-8.6,3.5C736.4,161.9,732.9,162.3,729.1,162.3z M729.6,155c4.1,0,8-0.6,11.6-1.8c3.7-1.2,6.9-2.9,9.6-5
			s5-4.7,6.6-7.7c1.6-3,2.4-6.4,2.4-10v-9.1c-3.3-0.8-7.3-1.6-11.8-2.4c-4.5-0.8-9.6-1.2-15.4-1.2c-8.5,0-15,1.7-19.5,5.1
			c-4.6,3.4-6.8,7.9-6.8,13.5v0.3c0,2.9,0.6,5.5,1.9,7.7c1.3,2.2,3,4.1,5.1,5.7c2.1,1.6,4.6,2.8,7.5,3.6
			C723.6,154.5,726.6,155,729.6,155z"/>
		<path class="st1" d="M792.8,186c-3,0-5.8-0.3-8.2-0.9c-2.4-0.6-5-1.5-7.7-2.6l2.7-6.8c2.1,1,4.1,1.8,6.1,2.3
			c2,0.5,4.5,0.7,7.5,0.7c2.1,0,4-0.3,5.8-0.9c1.8-0.6,3.5-1.7,5-3.2c1.6-1.5,3.1-3.5,4.6-5.9c1.5-2.4,2.9-5.3,4.4-8.8l-38.4-79.4
			h8.9l33.3,71.6l28.9-71.6h8.5l-34.7,82.9c-3.6,8.4-7.5,14.3-11.7,17.7C803.6,184.3,798.6,186,792.8,186z"/>
	</g>
	<g>
		<path class="st1" d="M188.5,162.4C217.5,120.4,211,63.5,172,29c-16-14.2-36.3-22.9-57.7-24.7C84,1.7,55,12.3,33.8,33.5
			c-39.4,39.4-39.4,103.6,0,143c19.1,19.1,44.5,29.6,71.5,29.6c8.5,0,17-1.1,25.2-3.2l3.8-1l-34-34l-0.6-0.1
			c-10.4-1.1-20.4-4.5-29-10.4c-20.1-13.9-30.2-37-26.9-61c1.5-10.4,5.6-20.3,12-28.6c13.9-18.2,35.7-27.3,58.5-24.3
			c10.7,1.4,20.9,5.7,29.5,12.2c15.9,12.3,24.8,30.6,24.6,50.2c-0.1,12.4-4.3,24.5-11.2,34.8c-3.3,5-6.2,8.4-11.3,12.7l-9.9,8.3
			c-0.6,0.5-0.6,1.4-0.1,1.9l55.1,55.1h50.7c1.1,0,1.7-1.4,0.9-2.2L188.5,162.4z"/>
		<path class="st2" d="M117,158.2c-0.7-0.7-0.4-1.9,0.6-2.1c9.1-2.2,17.7-6.8,24.8-13.9c21.3-21.3,20.5-56.3-2.4-76.6
			c-19.6-17.3-49.7-17.3-69.4,0c-22.9,20.2-23.7,55.3-2.4,76.6l75.3,75.3h29.7c1.1,0,1.7-1.4,0.9-2.2L117,158.2z M84.5,125.7
			c-11.5-11.5-11.5-30,0-41.5c11.5-11.5,30-11.5,41.5,0c11.5,11.5,11.5,30,0,41.5C114.5,137.2,96,137.2,84.5,125.7z"/>
	</g>
</g>
</svg>
