<svg width="70" height="25" viewBox="0 0 504 194" fill="none" xmlns="http://www.w3.org/2000/svg"><path d="M11.328 158.224L15.718 194h153.733l-5.031-40.972H92.743l-.626-5.077 66.019-46.134-4.411-35.848H0l5.03 40.971h71.796l.633 5.124-66.132 46.16z" fill="#1B1323"/><path d="M171.587 65.969L187.306 194h153.85L325.438 65.969H171.587z" fill="#AA8FFF"/><path d="M502.497 112.064c-3.547-28.78-26.156-46.22-56.882-46.095H343.286l15.712 128.025h46.035l-3.152-25.603H450.6c38.354 0 55.899-23.894 51.897-56.327zm-56.862 20.44l-48.132.052-3.771-30.725 48.402.04c11.387.131 17.209 6.54 18.145 15.316.58 5.637-2.004 15.31-14.644 15.31v.007z" fill="#1B1323"/><path d="M222.4 48.926c8.097-8.692 6.686-23.168-3.152-32.333-9.839-9.164-24.378-9.546-32.475-.854-8.097 8.693-6.686 23.168 3.152 32.333 9.839 9.164 24.378 9.547 32.475.854z" fill="#000"/></svg>